<?xml version="1.0" standalone="no"?>
<!DOCTYPE svg PUBLIC "-//W3C//DTD SVG 20010904//EN"
 "http://www.w3.org/TR/2001/REC-SVG-20010904/DTD/svg10.dtd">
<svg version="1.0" xmlns="http://www.w3.org/2000/svg"
 width="700.000000pt" height="700.000000pt" viewBox="0 0 700.000000 700.000000"
 preserveAspectRatio="xMidYMid meet">
<metadata>
Created by potrace 1.14, written by Peter Selinger 2001-2017
</metadata>
<g transform="translate(0.000000,700.000000) scale(0.100000,-0.100000)"
fill="#000000" stroke="none">
<path d="M620 6340 c-105 -19 -179 -107 -180 -213 0 -86 45 -158 125 -199 36
-19 59 -21 285 -22 215 -2 248 -4 272 -20 14 -9 29 -25 33 -34 7 -17 80 -287
155 -567 35 -132 57 -218 66 -250 2 -5 5 -19 8 -30 3 -11 19 -72 36 -135 50
-185 100 -373 105 -394 2 -10 11 -42 19 -70 8 -28 29 -105 46 -171 18 -66 45
-169 61 -230 17 -60 43 -159 59 -220 16 -60 52 -195 80 -300 97 -362 119 -450
112 -456 -4 -3 -43 -18 -87 -33 -294 -101 -544 -351 -655 -654 -51 -141 -78
-331 -58 -423 12 -60 67 -125 126 -150 42 -18 110 -19 2380 -19 1862 1 2344 3
2372 14 112 39 170 167 129 280 -23 62 -51 93 -113 122 l-49 22 -2184 1
c-1202 0 -2187 1 -2188 3 -12 12 89 182 135 228 51 51 134 111 194 139 145 68
19 64 1907 65 l1706 1 49 30 c62 39 82 70 186 295 141 303 156 336 250 555
119 279 112 260 143 340 15 39 34 84 41 100 31 74 149 388 212 565 130 363
134 378 129 437 -7 71 -50 138 -110 169 -22 12 -190 59 -277 79 -8 1 -118 26
-245 55 -126 28 -239 54 -250 56 -11 2 -31 6 -45 9 -22 5 -124 25 -200 40 -14
2 -36 7 -50 10 -45 10 -73 15 -220 40 -80 14 -152 27 -160 30 -8 2 -37 6 -64
10 -27 3 -52 8 -55 10 -3 1 -30 6 -60 10 -30 4 -63 9 -75 11 -12 2 -41 7 -66
9 -25 3 -52 8 -60 10 -8 2 -35 7 -60 10 -25 3 -79 10 -120 16 -41 5 -91 12
-110 14 -19 3 -51 7 -70 10 -19 2 -57 7 -85 10 -27 3 -61 8 -75 10 -14 2 -50
6 -80 9 -54 6 -152 16 -200 21 -43 5 -148 15 -212 20 -35 3 -81 8 -103 10 -22
3 -76 7 -120 10 -44 3 -102 7 -130 10 -27 3 -95 7 -150 10 -55 2 -147 7 -205
10 -255 14 -350 16 -769 19 l-444 4 -44 157 c-52 188 -85 255 -169 338 -65 65
-177 130 -243 142 -19 3 -39 9 -44 12 -13 8 -493 10 -537 3z"/>
<path d="M1460 1527 c-3 -3 -19 -7 -35 -10 -72 -11 -186 -88 -249 -166 -28
-36 -64 -122 -74 -182 -57 -314 245 -585 551 -494 266 79 390 371 265 619 -49
97 -172 199 -268 223 -34 8 -184 16 -190 10z"/>
<path d="M5130 1514 c-262 -79 -391 -369 -272 -614 38 -77 123 -160 202 -198
174 -82 363 -51 496 82 212 213 156 566 -112 700 -27 13 -65 29 -85 34 -53 14
-176 12 -229 -4z"/>
</g>
</svg>
